<svg version="1" xmlns="http://www.w3.org/2000/svg" width="2400" height="2400" viewBox="0 0 1800.000000 1800.000000"><path d="M634 15.7c0 .4-5.3.8-11.8.8-13.9 0-19 1.6-21.4 6.8-1.3 2.8-1.4 51.4-1.2 388.7.1 212 .4 391.1.7 398 .8 15.3 1.4 26.9 2.2 37.5 1.3 16.7 1.4 17.3 3.6 35.5 2.1 16.6 2.2 17.6 5.4 35.5 1.2 7 1.7 9.2 2.7 13 .5 2.2 1.2 4.9 1.3 6 1.7 11.1 12.6 44.9 19.7 61 4.2 9.4 13.8 28.6 14.8 29.5.3.3 1.1 1.6 1.8 3s2.1 3.8 3.2 5.5c1.1 1.6 2.5 4 3.1 5.2.7 1.3 1.5 2.3 1.9 2.3.4 0 1.3 1.4 2 3 .7 1.7 1.8 3.4 2.4 3.8.6.4 2.4 2.6 4 4.9 1.6 2.4 3.3 4.3 3.7 4.3.5 0 .9.6.9 1.2 0 2.2 18.1 21.2 30.1 31.7 8.9 7.7 9.6 8.3 17.4 14.1 3.3 2.5 6.2 4.8 6.3 5.2.2.5 1 .8 1.8.8s1.4.4 1.4 1c0 .5.7 1 1.5 1s1.5.3 1.5.8c0 .4.9 1.2 1.9 1.7 1.1.6 4.7 2.9 8.1 5.2 3.4 2.4 6.6 4.3 7 4.3.5 0 1 .3 1.2.7.3.8 10.5 7.3 11.3 7.3.2 0 2.8 1.4 5.7 3.1 12.1 7.2 34.3 17.4 45.3 20.9 2.2.7 4.5 1.6 5.1 2.1.6.5 1.4.6 1.7.2.4-.3 1.2-.1 1.9.4s5.1 2 9.8 3.3c4.7 1.2 9.5 2.7 10.7 3.2 1.1.6 2.5.8 3 .5.4-.3 1.9 0 3.1.7 2.4 1.3 2.2 1.4-10.3 6.6-11.7 5-55.5 30.6-62.1 36.5-.7.5-2.4 1.9-3.9 2.9-1.4 1.1-3.5 2.7-4.5 3.5-1 .9-3.2 2.6-4.8 3.8-5.8 4.5-14.6 12.8-21.2 20-9 9.8-12.1 13.5-16.4 19.8-2.3 3.3-4.4 6.2-4.7 6.5-1 .9-13.2 23.3-13.8 25.5-.4 1.1-.7 2.1-4.1 11-1.2 3.3-2.3 6.7-2.5 7.5l-2 8c-1.8 7.1-1.9 7.3-3 14-.9 5-1.4 9.4-2 16-.6 6.5-.6 30.1 0 33 .2 1.3.7 4.2 1.1 6.5.3 2.2 1 6 1.6 8.5 1 4.8 1.2 5.4 2.8 11.5.6 2.2 1.2 4.4 1.3 5 .1.5.7 2.3 1.3 4 .6 1.6 1.9 5.5 2.9 8.5 7.6 23.5 23.1 61.2 41.8 101.4 4.6 9.9 37.2 75.1 40.5 81.1 1.6 2.7 5.1 9.3 7.9 14.5 2.7 5.2 7.4 13.8 10.3 19 2.9 5.2 6.7 12 8.3 15 1.6 3 3.6 6.2 4.3 7 .7.8 1.2 1.7 1.1 2 0 .3.6 1.6 1.5 3 .8 1.4 4.1 7 7.3 12.5s7 11.8 8.4 14c1.4 2.2 2.5 4.2 2.6 4.5 0 .3 1 1.9 2.3 3.7 1.2 1.7 2.2 3.6 2.2 4.2 0 .6.4 1.1.8 1.1.5 0 1.4 1.1 2 2.5 1.3 2.8 24.6 38.8 28.5 44 .4.5 3.5 4.8 7 9.5 11.6 15.8 17.6 20 23.4 16.3 3.5-2.2 10.7-10 15.1-16.2 5.3-7.5 31.7-47.2 34.6-52.1 1.5-2.5 4.3-7 6.2-10 1.9-3 3.9-6.4 4.4-7.5.6-1.1 1.8-3.2 2.8-4.7 4-6.2 10.2-17.1 10.2-17.9 0-.5.4-.9.9-.9s1.3-1 1.6-2.2c.4-1.1 2.1-4.4 3.8-7.2 3.7-6.4 5.6-9.7 9.3-16.6 1.6-3 3.1-5.7 3.4-6 .4-.3 1.5-2.3 2.6-4.5s4.1-7.8 6.6-12.5c10.1-18.5 16.4-30.7 31-60 8.4-16.8 15.3-30.7 15.3-31 .3-1.1 2.6-6.1 7.5-16.5 2.9-6.1 9-20 13.6-31 4.7-11 8.9-20.8 9.5-21.7.5-1 .9-2.3.9-2.9 0-.6.7-2.5 1.5-4.2 1.9-4.1 8.5-21.9 8.5-23 0-.5.6-2.3 1.3-4 1.4-3.2 3.4-9.1 4.3-12.4.2-1 1.8-7 3.5-13.3 3.1-12 3.7-15 4.3-23.8.2-3 .6-5.5.8-5.8.3-.2.2-2.5-.2-4.9-.4-2.5-.3-4.8.2-5.1.4-.3.6-.9.3-1.4-.3-.4-.7-4.9-1-10-.3-5-1-11.9-1.5-15.3-.6-3.4-1.3-7.1-1.4-8.2-1.6-9.3-6.4-24.9-10.9-35.5-3.5-8.2-11.1-22.6-13.3-25.1-.8-.8-1.4-1.9-1.4-2.3 0-.4-.5-1.2-1-1.9-.6-.7-2.7-3.5-4.8-6.3-4.4-6-5.2-7-11.8-14-2.8-3-5-5.4-4.8-5.4.2 0-.7-1-1.9-2.3-1.2-1.3-2.3-2.2-2.5-2.1-.1 0-2.6-2.2-5.6-5.1-8.3-8.1-37.3-29.4-44.6-32.8-.8-.4-2.8-1.6-4.5-2.7-6.1-3.9-19.5-11.1-33.3-17.8-7.9-3.9-13.9-7.2-13.5-7.5.4-.3 2.8-.8 5.3-1.2 2.5-.4 5.1-1.2 5.8-1.7.6-.6 1.2-.8 1.2-.5 0 .4 1.8 0 4-.8s4.2-1.4 4.5-1.5c.5 0 .9-.1 2.3-.5.4-.1 2.1-.5 3.7-1 1.7-.4 3.5-1 4-1.4.6-.3 1.5-.6 2-.8 1.5-.3 14.7-5.2 17-6.2 1.1-.6 4.3-2 7-3.2 8.8-3.8 21.8-10.5 28.9-14.7 3.7-2.3 7.2-4.2 7.7-4.2s.9-.5.9-1c0-.6.5-1 1.1-1 1 0 30.5-19.7 36.2-24.3 11.9-9.3 17.8-14.6 28.7-25.8 13-13.2 16.9-17.6 23.5-26.9 2.2-3 4.3-5.7 4.7-5.8.5-.2.8-1 .8-1.8s.5-1.4 1-1.4c.6 0 1-.4 1-.9 0-.6 1.3-2.9 2.9-5.3 6.4-9.5 16.4-28.7 22-42.3 3.7-9 9.1-23.2 9.6-25.5.2-.8 2.2-7.8 4.4-15.5s4.9-18.7 6.1-24.5c1.2-5.8 2.4-11.4 2.6-12.5.3-1.1.7-3.6 1-5.5.3-1.9.9-6 1.4-9 1.6-9.7 1.9-11.4 2.6-17 .4-3 .8-7.4.8-9.7.1-2.4.3-4.3.6-4.3s.6-1.2.6-2.8c.1-1.5.4-5.9.8-9.7 1-10.8 1.6-20.3 2.1-28.7.2-4.2.6-8.2 1-8.8.3-.5.1-1-.5-1s-.8-.5-.4-1.1c1.6-2.7 1.8-54.6 1.9-416.1 0-376.9-.1-379.6-2-381.8-4.6-5-8.2-5.7-34-6-.5-.1-3.2.1-5.8.3-2.7.1-5.1-.1-5.3-.5-.3-.4-1.5-.4-2.7 0-1.2.4-3.3.7-4.7.5-1.4-.1-3.8-.2-5.5-.2-3.3 0-13.4-.1-15-.2-3.8-.2-14.2 1.2-16.4 2.1-1.4.6-3.5 2.3-4.5 3.7-1.8 2.5-1.9 5.1-1.9 63.3 0 33.4.4 61.3.7 61.9.4.6.4 1.1-.1 1.1-.9 0-.8 14.2.1 16.6.3.7.2 1.4-.2 1.4-.6 0-.7 18.4-.1 20 .1.3 0 .9-.1 1.5-.5 2.2-.2 10.3.4 11.3.3.6.2 1.3-.2 1.6-.5.3-.6 2.6-.2 5.1.4 2.5.4 4.5.1 4.5-.3 0-.6 1.6-.6 3.5s.4 3.5.8 3.5c.5 0 .5.4.2 1-.8 1.3-1 11.8-.2 12.6.3.4.2 1.4-.3 2.3-.5 1-.5 2.3 0 3.1.4.7.4 2.4 0 3.6-.6 1.4-.5 2.6 0 2.9.5.3.5 1.8.1 3.3-.5 1.5-.5 3.6-.1 4.7s.4 3.4 0 5.1c-.4 1.8-.4 3.8 0 4.5.5.7.5 2.2 0 3.4-.5 1.2-.5 2.8 0 3.5.5.7.4 2.4 0 3.6-.6 1.4-.5 2.6 0 2.9.5.3.5 1.8 0 3.4-.4 1.6-.6 3.2-.4 3.4.9.8 1 12.8.2 13.3-.5.3-.5 1-.1 1.7.9 1.5 1.1 5.7.2 6.3-.3.2-.3 2.1.1 4.3.4 2.2.4 4.5-.1 5.2-.4.7-.5 1.8-.2 2.3 1 1.5.9 9.8 0 11.8-.4 1-.4 1.8 0 1.8 1 0 .9 9.1 0 10.7-.4.6-.4 1.4.1 1.7.5.3.7 2 .5 3.8-.2 1.8-.3 5.3-.2 7.8v5.7c-.2 2.3-.2 3.7.1 9 .2 2.9-.1 5.3-.5 5.3-.5 0-.5.5-.1 1.2 1 1.6 1.1 15.8.1 15.8-.5 0-.5.5-.1 1.2 1 1.6 1.1 11.8.1 11.8-.4 0-.5.5-.1 1.2 1 1.6 1.1 27.8.1 27.8-.5 0-.5.5-.1 1.2 1.1 1.8 1.1 39.8-.1 39.8-.7 0-.7.3 0 .8s1 45.9.9 135.2c-.1 74-.3 134.9-.4 135.5-.1.5-.2 1.3-.2 1.6.6 4.3-.7 35.8-2.3 58.4-1.2 16.4-1.5 19.4-1.9 23-1.1 9.5-2.9 24.2-3.1 26.5-.2 1.4-.6 4.2-.9 6.2-.3 2.1-.8 5.3-1.1 7-.2 1.8-.6 4.2-.9 5.3-.2 1.1-.7 4-1.2 6.5-.4 2.5-.8 4.7-.9 5-.1.3-.5 2.5-.9 5-.5 2.5-1 5.2-1.2 6-.6 2.4-4.4 18.3-4.9 20.5-.8 3.4-7.3 23.7-9.4 29.6-2.5 7-11 27.1-12.1 28.4-.4.5-2.7 4.6-5 9-2.4 4.4-4.6 8.2-4.9 8.5-.3.3-1.2 1.7-2 3.2-.8 1.5-2.2 3.6-3.1 4.6-1 1-2.3 2.8-2.9 4.1-1.9 3.4-12.7 15.9-20 23-7.4 7.1-22.9 19.1-24.8 19.1-.7 0-1.3.4-1.3.9 0 .4-2.2 1.9-5 3.2-2.8 1.3-5 2.7-5 3.1 0 .5-.6.8-1.4.8-.8 0-3.6 1.1-6.3 2.4-6.6 3.2-27.9 10.4-33.3 11.1-.8.1-4.2.7-7.5 1.3-13.7 2.6-19.4 3.1-40 3.1-19.6 0-27.5-.6-42-3.5-1.6-.3-3.9-.7-5-.9-1.1-.2-3.8-.9-6-1.5s-5.1-1.3-6.5-1.6c-1.4-.2-3.4-.8-4.5-1.3-6-2.5-13.1-5.3-14-5.5-1.1-.2-15-7.1-18-8.9-3.1-1.9-13.9-9.1-14.5-9.7-.3-.3-2.2-1.8-4.3-3.4-4.4-3.2-19.7-18.5-24.3-24.3-7.8-9.6-20.8-30.7-25.6-41.3-4.8-10.7-5.9-13.3-8-18.6-1.2-3.3-2.3-6.4-2.4-6.9-.2-.6-1.7-5.1-3.4-10-4.1-12.1-4.8-14.5-5.4-17.7-.2-1.5-.7-3.1-1-3.6-.3-.5-.7-1.9-1-3.3-.3-1.3-1.9-8.9-3.6-16.9-1.7-8-3.3-16.1-3.6-18-.3-1.9-.6-4.4-.8-5.5-1.3-7.8-1.7-10.5-2-14-.2-2.2-.7-5.6-1-7.5-1-6.4-1.7-12.4-2.1-19-.3-3.6-.7-8.1-1-10-1-7.7-1.8-21.2-3.1-52.5-.5-9.9-.7-180.4-.6-379 .1-198.6-.2-361.5-.6-362-1.6-2.2-5.1-4.6-7.3-5-1.3-.3-4.1-.7-6.3-1.1-2.2-.3-4.4-.8-4.8-1-.5-.3-.8-.2-.8.3 0 .4-2.4.7-5.2.5-5.8-.3-5.7-.3-17.8.1-4.7.2-9.1-.1-9.7-.6-.8-.6-1.3-.6-1.3 0 0 1-6 1-7.8-.1-.7-.4-1.2-.4-1.2.1z"/></svg>